<?xml version="1.0" encoding="iso-8859-1"?>
<!-- Generator: Adobe Illustrator 19.0.0, SVG Export Plug-In . SVG Version: 6.00 Build 0)  -->
<svg version="1.1" id="Layer_1" xmlns="http://www.w3.org/2000/svg" xmlns:xlink="http://www.w3.org/1999/xlink" x="0px" y="0px"
	 viewBox="0 0 512 512" style="enable-background:new 0 0 512 512;" xml:space="preserve">
<g>
	<g>
		<path d="M348.105,144.54L380.878,0H131.122l32.773,144.539C83.188,180.004,26.821,260.632,26.821,354.44
			c0,61.039,23.88,116.486,62.786,157.56h332.781c38.907-41.074,62.79-96.521,62.79-157.56
			C485.179,260.633,428.81,180.005,348.105,144.54z M333.97,37.463l-20.953,92.41H198.986l-20.953-92.41H333.97z M405.418,474.537
			H106.578C79.201,440.557,64.285,398.47,64.285,354.44c0-76.062,45.016-144.99,114.682-175.604l26.172-11.5h101.723l26.171,11.501
			c69.667,30.615,114.683,99.543,114.683,175.602C447.715,398.468,432.797,440.557,405.418,474.537z"/>
	</g>
</g>
<g>
</g>
<g>
</g>
<g>
</g>
<g>
</g>
<g>
</g>
<g>
</g>
<g>
</g>
<g>
</g>
<g>
</g>
<g>
</g>
<g>
</g>
<g>
</g>
<g>
</g>
<g>
</g>
<g>
</g>
</svg>
